<mxfile host="Electron" modified="2023-04-21T14:23:13.276Z" agent="Mozilla/5.0 (Windows NT 10.0; Win64; x64) AppleWebKit/537.36 (KHTML, like Gecko) draw.io/21.1.2 Chrome/106.0.5249.199 Electron/21.4.3 Safari/537.36" etag="_gjLjQhxJ7Cvnk4Eol-s" version="21.1.2" type="device">
  <diagram name="Page-1" id="-j9yGp69UJHOpydQYSvt">
    <mxGraphModel dx="714" dy="418" grid="1" gridSize="10" guides="1" tooltips="1" connect="1" arrows="1" fold="1" page="1" pageScale="1" pageWidth="827" pageHeight="1169" math="0" shadow="0">
      <root>
        <mxCell id="0" />
        <mxCell id="1" parent="0" />
        <mxCell id="Cm811DUZPHUNfOGO4TpH-1" value="v" style="rounded=1;whiteSpace=wrap;html=1;fillColor=#f5f5f5;fontColor=#333333;strokeColor=#666666;" parent="1" vertex="1">
          <mxGeometry x="190" y="270" width="600" height="360" as="geometry" />
        </mxCell>
        <mxCell id="Cm811DUZPHUNfOGO4TpH-2" value="&lt;font style=&quot;font-size: 16px;&quot;&gt;Programming Language&lt;br&gt;C#&lt;/font&gt;" style="rounded=1;whiteSpace=wrap;html=1;fillColor=#fff2cc;strokeColor=#d6b656;" parent="1" vertex="1">
          <mxGeometry x="390" y="350" width="390" height="200" as="geometry" />
        </mxCell>
        <mxCell id="Cm811DUZPHUNfOGO4TpH-3" value="Windows Presentation Foundation&lt;br&gt;(WPF)&lt;br&gt;" style="rounded=1;whiteSpace=wrap;html=1;" parent="1" vertex="1">
          <mxGeometry x="390" y="350" width="150" height="50" as="geometry" />
        </mxCell>
        <mxCell id="Cm811DUZPHUNfOGO4TpH-4" value=".NET 6.0" style="rounded=1;whiteSpace=wrap;html=1;" parent="1" vertex="1">
          <mxGeometry x="630" y="350" width="150" height="50" as="geometry" />
        </mxCell>
        <mxCell id="Cm811DUZPHUNfOGO4TpH-7" value="&lt;font style=&quot;font-size: 19px;&quot;&gt;Car Tuning Master&lt;/font&gt;" style="rounded=1;whiteSpace=wrap;html=1;" parent="1" vertex="1">
          <mxGeometry x="480" y="150" width="220" height="40" as="geometry" />
        </mxCell>
        <mxCell id="Cm811DUZPHUNfOGO4TpH-8" value="" style="endArrow=classic;html=1;rounded=0;" parent="1" source="Cm811DUZPHUNfOGO4TpH-7" edge="1">
          <mxGeometry width="50" height="50" relative="1" as="geometry">
            <mxPoint x="390" y="210" as="sourcePoint" />
            <mxPoint x="288" y="346.24046920821115" as="targetPoint" />
          </mxGeometry>
        </mxCell>
        <mxCell id="Z_q5xqp0H8X5fKrJpgwS-1" value="" style="endArrow=classic;html=1;rounded=0;" parent="1" source="Cm811DUZPHUNfOGO4TpH-2" edge="1">
          <mxGeometry width="50" height="50" relative="1" as="geometry">
            <mxPoint x="510" y="380" as="sourcePoint" />
            <mxPoint x="288" y="378.40178571428567" as="targetPoint" />
          </mxGeometry>
        </mxCell>
        <mxCell id="Xp_2jed3Wbn-uz_41_gL-1" value="Desktop Application" style="rounded=1;whiteSpace=wrap;html=1;" parent="1" vertex="1">
          <mxGeometry x="630" y="500" width="150" height="50" as="geometry" />
        </mxCell>
        <mxCell id="mnJDvWWz1LX5hAhjPTi1-1" value="" style="outlineConnect=0;dashed=0;verticalLabelPosition=bottom;verticalAlign=top;align=center;html=1;shape=mxgraph.aws3.mysql_db_instance;fillColor=#2E73B8;gradientColor=none;" parent="1" vertex="1">
          <mxGeometry x="220" y="325.5" width="70" height="74.5" as="geometry" />
        </mxCell>
        <mxCell id="waD196duQKESl3dq0pfd-1" value="config.ini" style="sketch=0;pointerEvents=1;shadow=0;dashed=0;html=1;strokeColor=none;labelPosition=center;verticalLabelPosition=bottom;verticalAlign=top;align=center;fillColor=#505050;shape=mxgraph.mscae.oms.config_assessment" parent="1" vertex="1">
          <mxGeometry x="230" y="420" width="50" height="45" as="geometry" />
        </mxCell>
        <mxCell id="waD196duQKESl3dq0pfd-2" value="" style="endArrow=classic;html=1;rounded=0;" parent="1" source="Cm811DUZPHUNfOGO4TpH-2" target="waD196duQKESl3dq0pfd-1" edge="1">
          <mxGeometry width="50" height="50" relative="1" as="geometry">
            <mxPoint x="390" y="462.3" as="sourcePoint" />
            <mxPoint x="288" y="437.7017857142857" as="targetPoint" />
          </mxGeometry>
        </mxCell>
        <mxCell id="waD196duQKESl3dq0pfd-4" value="colors.json" style="dashed=0;outlineConnect=0;html=1;align=center;labelPosition=center;verticalLabelPosition=bottom;verticalAlign=top;shape=mxgraph.weblogos.json" parent="1" vertex="1">
          <mxGeometry x="220" y="490" width="50" height="51" as="geometry" />
        </mxCell>
        <mxCell id="waD196duQKESl3dq0pfd-5" value="" style="endArrow=classic;html=1;rounded=0;" parent="1" source="Cm811DUZPHUNfOGO4TpH-2" target="waD196duQKESl3dq0pfd-4" edge="1">
          <mxGeometry width="50" height="50" relative="1" as="geometry">
            <mxPoint x="380" y="493" as="sourcePoint" />
            <mxPoint x="270" y="490" as="targetPoint" />
          </mxGeometry>
        </mxCell>
      </root>
    </mxGraphModel>
  </diagram>
</mxfile>
